<svg width="64" height="53" viewBox="0 0 64 53" fill="none" xmlns="http://www.w3.org/2000/svg">
    <rect x="5.15698" y="6.04982" width="4.2854" height="37" rx="2.1427" transform="rotate(7.41353 5.15698 6.04982)" fill="#131212"/>
    <path d="M46.3397 3.01817C46.4717 1.8212 47.549 0.95785 48.746 1.08981V1.08981C49.9429 1.22178 50.8063 2.29909 50.6743 3.49605L46.2209 43.8904C46.0889 45.0874 45.0116 45.9508 43.8146 45.8188V45.8188C42.6177 45.6868 41.7543 44.6095 41.8863 43.4126L46.3397 3.01817Z" fill="#131212"/>
    <rect x="62.9781" y="1" width="3.31913" height="14.9807" rx="1.65957" transform="rotate(88.9314 62.9781 1)" fill="#131212"/>
    <rect x="0.855438" y="41.8777" width="4.0932" height="43.5376" rx="2.0466" transform="rotate(-86.8558 0.855438 41.8777)" fill="#131212"/>
    <rect x="3" y="33.511" width="4.51779" height="41.7939" rx="2.25889" transform="rotate(-86.8558 3 33.511)" fill="#131212"/>
    <rect x="3" y="23.7715" width="4.77866" height="44.1611" rx="2.38933" transform="rotate(-86.8558 3 23.7715)" fill="#131212"/>
    <rect x="4.15509" y="14.0589" width="4.24961" height="44.2953" rx="2.1248" transform="rotate(-86.8558 4.15509 14.0589)" fill="#131212"/>
    <rect x="17.4714" y="12" width="4.5602" height="30.6287" rx="2.2801" transform="rotate(6.50774 17.4714 12)" fill="#131212"/>
    <rect x="31.572" y="13" width="4.5873" height="29.2935" rx="2.29365" transform="rotate(7.00396 31.572 13)" fill="#131212"/>
    <ellipse cx="5.5" cy="43" rx="1.5" ry="2" fill="#161515"/>
    <circle cx="5.5" cy="47.5" r="3.5" fill="#D9D9D9"/>
    <circle cx="44" cy="49" r="4" fill="#0A0909"/>
    <circle cx="44" cy="49" r="2" fill="#FEFDFD"/>
    <circle cx="5" cy="47" r="4" fill="#0A0909"/>
    <circle cx="5" cy="47" r="2" fill="#FEFDFD"/>
</svg>


