<svg width="154" height="67" viewBox="0 0 154 67" fill="none" xmlns="http://www.w3.org/2000/svg">
    <g clip-path="url(#clip0_4_12)">
        <rect x="0.768127" y="3.41051" width="151.683" height="62.83" rx="6" transform="rotate(-1.21229 0.768127 3.41051)" fill="white"/>
        <path d="M31.4024 32.0586C32.17 32.0847 32.762 32.3209 33.1784 32.7673C33.6188 33.2145 33.8253 33.8219 33.7981 34.5894C33.7913 34.7813 33.772 34.9847 33.7404 35.1998C33.7096 35.3909 33.6556 35.5571 33.5786 35.6986C33.2684 35.64 32.9219 35.5922 32.539 35.5552C32.1569 35.4942 31.702 35.4547 31.1743 35.4368C30.095 35.4002 29.0122 35.4594 27.926 35.6146C26.8398 35.7699 25.8028 35.8907 24.8151 35.9772C23.6454 38.483 22.6732 40.8393 21.8983 43.0463C21.1235 45.2533 20.5054 47.4415 20.0441 49.6111C19.2354 49.3915 18.5281 49.0193 17.9224 48.4945C17.3166 47.9696 16.7541 47.2421 16.2348 46.3119C16.4164 45.9339 16.6364 45.4851 16.895 44.9655C17.1545 44.422 17.4666 43.7483 17.8314 42.9442C18.197 42.1161 18.6286 41.1222 19.1261 39.9624C19.6484 38.7795 20.2628 37.3715 20.9692 35.7385C19.9737 35.3685 19.335 34.7585 19.053 33.9084C19.1772 33.7926 19.5177 33.6721 20.0744 33.5469C20.6321 33.3978 21.3101 33.2407 22.1085 33.0757C22.5015 32.1525 22.8427 31.3356 23.1321 30.625C23.4224 29.8905 23.687 29.2031 23.9258 28.5628C24.1656 27.8985 24.3805 27.2575 24.5705 26.6396C24.7854 25.9985 24.9776 25.3206 25.1471 24.606L24.9672 24.5999C24.0557 24.5689 23.3198 24.3278 22.7595 23.8765C22.2231 23.426 21.9673 22.853 21.992 22.1575C21.9989 21.9656 22.0309 21.7385 22.0883 21.4763C22.1696 21.2149 22.2617 20.9899 22.3644 20.8013C22.8176 20.8888 23.2596 20.9518 23.6905 20.9904C24.1454 21.0299 24.7327 21.0619 25.4522 21.0863C26.9634 21.1376 28.3798 21.1497 29.7016 21.1226C31.0243 21.0715 32.215 21.0159 33.2738 20.9558C34.3566 20.8965 35.283 20.8439 36.0532 20.798C36.8241 20.7282 37.4135 20.7001 37.8212 20.714C38.3729 20.7327 38.8544 21.0373 39.2657 21.6276C39.677 22.2179 39.9839 23.0448 40.1862 24.1082C39.4212 24.0102 38.7993 23.9411 38.3204 23.9008C37.8655 23.8613 37.4582 23.8355 37.0984 23.8233C35.8751 23.7817 34.7456 23.8034 33.71 23.8883C32.6991 23.95 31.7354 24.0373 30.8188 24.1503C30.6673 24.3612 30.4895 24.6314 30.2857 24.9606C30.1059 25.2907 29.861 25.7627 29.551 26.3765C29.2419 26.9663 28.842 27.7452 28.3513 28.7131C27.8846 29.6818 27.2886 30.9103 26.5633 32.3985C27.5039 32.2864 28.3956 32.1966 29.2386 32.1292C30.1055 32.0626 30.8268 32.0391 31.4024 32.0586Z" fill="#1E1E1E"/>
        <path d="M83.6231 42.2659C83.5743 42.2883 83.5259 42.2986 83.4779 42.297C83.43 42.2954 83.334 42.2921 83.1901 42.2872C82.8543 42.2758 82.4606 42.2024 82.0092 42.067C81.5808 41.9564 81.1538 41.8098 80.728 41.6273C80.3253 41.4695 79.9715 41.2894 79.6665 41.0869C79.3855 40.8853 79.2115 40.7113 79.1447 40.5649C79.1326 40.2283 79.133 39.8801 79.1458 39.5203C79.1586 39.1606 79.1709 38.8128 79.1828 38.477C79.2783 35.7907 79.5699 32.991 80.0576 30.0779C80.5693 27.1656 81.3414 24.022 82.3739 20.6471C82.4818 20.3145 82.5926 19.8981 82.7065 19.3976C82.8452 18.874 82.9851 18.3145 83.1263 17.7189C82.5345 18.1551 81.8249 18.8634 80.9976 19.8439C80.1711 20.8004 79.2898 21.9471 78.3537 23.2841C77.4425 24.5979 76.5142 26.0553 75.5688 27.6561C74.6482 29.2337 73.7983 30.8498 73.019 32.5043C72.2406 34.1348 71.5586 35.7566 70.973 37.3696C70.4113 38.9835 70.0458 40.484 69.8765 41.871C68.7371 41.4961 67.9455 41.133 67.5017 40.7818C67.0818 40.4313 66.8805 40.0162 66.8975 39.5365C66.9128 39.1048 67.0665 38.4977 67.3585 37.7151C67.6504 36.9326 68.0554 36.0098 68.5735 34.9468C69.0916 33.8838 69.7218 32.7045 70.4643 31.4089C71.2076 30.0894 72.0263 28.6764 72.9204 27.1699C73.942 25.4516 74.9358 23.8404 75.9019 22.3363C76.8918 20.8331 77.8527 19.4729 78.7845 18.2558C79.7163 17.0388 80.6182 15.9888 81.4901 15.1059C82.386 14.2238 83.2622 13.5571 84.1187 13.106C84.4546 13.1174 84.8953 13.2164 85.441 13.403C86.0107 13.5905 86.5552 13.8131 87.0743 14.0709C87.6175 14.3294 88.0883 14.5976 88.4867 14.8753C88.9099 15.1298 89.1425 15.3418 89.1845 15.5113C88.8249 16.1715 88.3933 17.1654 87.8899 18.4931C87.3864 19.8208 86.8646 21.3279 86.3243 23.0145C85.8081 24.702 85.3 26.4978 84.8001 28.4019C84.325 30.2828 83.9364 32.0947 83.6344 33.8374C84.2329 32.537 84.9171 31.1915 85.687 29.8008C86.4817 28.387 87.3115 26.9983 88.1765 25.6349C89.0423 24.2475 89.9184 22.9085 90.8047 21.6178C91.7151 20.328 92.5972 19.1573 93.4511 18.1057C94.3058 17.0301 95.0955 16.0963 95.8201 15.3045C96.5686 14.5134 97.2255 13.9354 97.7909 13.5704C98.1267 13.5818 98.5674 13.6808 99.1131 13.8674C99.6829 14.0549 100.227 14.2775 100.746 14.5353C101.29 14.7939 101.76 15.062 102.159 15.3397C102.582 15.5942 102.815 15.8062 102.857 15.9757C102.041 17.3168 101.31 18.9609 100.664 20.9081C100.019 22.8553 99.4536 24.9013 98.9692 27.0461C98.5087 29.1917 98.1326 31.3282 97.8409 33.4555C97.574 35.5597 97.4107 37.4512 97.3511 39.1301C97.3315 39.6818 97.311 40.2574 97.2897 40.8571C97.2684 41.4567 97.2703 42.0811 97.2952 42.7303C96.9594 42.7189 96.5534 42.6571 96.0771 42.5449C95.6239 42.4574 95.172 42.334 94.7213 42.1746C94.2947 42.016 93.9049 41.8347 93.5519 41.6306C93.1981 41.4505 92.9531 41.2501 92.8168 41.0293C92.8048 40.6927 92.8051 40.3445 92.8179 39.9847C92.8307 39.625 92.843 39.2772 92.855 38.9414C92.9504 36.2551 93.242 33.4554 93.7297 30.5423C94.2414 27.63 95.0135 24.4864 96.046 21.1115C96.1539 20.7789 96.278 20.3269 96.4184 19.7553C96.5588 19.1838 96.7 18.5882 96.8421 17.9687C96.1586 18.2817 95.368 18.9032 94.4704 19.8333C93.5977 20.7401 92.6933 21.8621 91.7572 23.1991C90.846 24.5129 89.9292 25.9826 89.0069 27.6082C88.1086 29.2347 87.281 30.8996 86.524 32.6028C85.7919 34.2829 85.1557 35.9663 84.6155 37.6529C84.1001 39.3164 83.7693 40.8541 83.6231 42.2659Z" fill="#1E1E1E"/>
        <path d="M42.4146 39.9121C42.1481 39.9222 41.9195 39.8775 41.7288 39.778C41.5381 39.6784 41.4371 39.4821 41.4256 39.189C41.4111 38.816 41.4877 38.3861 41.6555 37.8994C41.8233 37.4127 42.0183 36.9383 42.2404 36.4762C42.4615 35.9875 42.6596 35.5931 42.8347 35.2929C41.9406 36.3141 41.0043 37.2836 40.026 38.2012C39.5364 38.6467 38.9924 39.0676 38.3941 39.4639C37.7957 39.8601 37.1501 40.0714 36.4573 40.0976C36.1908 40.1077 36.0012 40.0348 35.8883 39.8789C35.7745 39.6965 35.7129 39.4853 35.7035 39.2455C35.6983 39.1122 35.708 39.0185 35.7325 38.9642C35.8252 37.9199 36.1162 36.8281 36.6054 35.6888C37.0947 34.5495 37.7065 33.4723 38.4408 32.4571C39.1751 31.4419 39.93 30.6128 40.7055 29.9697C41.5844 29.2426 42.5702 28.8583 43.6628 28.817L48.2595 28.643C48.3927 28.6379 48.4614 28.6887 48.4656 28.7953C48.4739 29.0085 48.3581 29.1196 48.1183 29.1287C47.8518 29.1388 47.5921 29.322 47.3392 29.6785C47.0852 30.0084 46.8957 30.2824 46.7708 30.5006C46.5957 30.8008 46.3218 31.3048 45.9492 32.0128C45.5765 32.7207 45.1931 33.4958 44.799 34.3379C44.4305 35.1525 44.1132 35.9117 43.8471 36.6156C43.581 37.3195 43.4542 37.8313 43.4667 38.1511C43.4813 38.5241 43.6751 38.7036 44.0481 38.6895C44.4479 38.6743 44.8936 38.4707 45.3853 38.0784C45.8771 37.6862 46.3657 37.2141 46.8512 36.662C47.3623 36.0822 47.8206 35.5178 48.2262 34.9688C48.6574 34.392 48.9999 33.9388 49.2539 33.6089C49.4201 33.7627 49.4156 33.9897 49.2405 34.2899C49.091 34.5624 48.9528 34.7811 48.8258 34.9461C48.3199 35.659 47.735 36.4017 47.0713 37.174C46.4066 37.9197 45.671 38.5613 44.8647 39.0989C44.084 39.6088 43.2673 39.8798 42.4146 39.9121ZM38.0431 38.6766C38.3628 38.6645 38.7937 38.4213 39.3356 37.9472C39.9031 37.4453 40.5065 36.8354 41.1456 36.1174C41.7837 35.3727 42.3808 34.6029 42.9369 33.808C43.4919 32.9864 43.9435 32.2488 44.2916 31.5952C44.6653 30.9139 44.8454 30.4 44.8319 30.0536C44.8204 29.7605 44.7194 29.5642 44.5287 29.4647C44.3646 29.3641 44.1494 29.3189 43.8829 29.329C43.4565 29.3452 42.9964 29.5227 42.5026 29.8616C42.0344 30.1729 41.6595 30.4806 41.3778 30.7848C41.0695 31.09 40.7013 31.571 40.2732 32.2276C39.8708 32.8566 39.4709 33.5522 39.0737 34.3145C38.6765 35.0767 38.3448 35.8098 38.0787 36.5137C37.8127 37.2176 37.6879 37.7827 37.7046 38.2091C37.7171 38.5288 37.8299 38.6847 38.0431 38.6766ZM51.1465 40.102C50.6668 40.1201 50.1579 40.0727 49.6197 39.9596C49.0816 39.8466 48.5936 39.6515 48.1558 39.3746C47.7436 39.07 47.4605 38.6537 47.3064 38.1258C47.2767 38.0469 47.2587 37.9275 47.2524 37.7676C47.2379 37.3945 47.3017 36.9785 47.4439 36.5195C47.6127 36.0594 47.8268 35.7311 48.086 35.5345C48.1905 35.4771 48.2704 35.4741 48.3258 35.5254C48.4078 35.5757 48.4232 35.6285 48.372 35.6838C48.3485 35.7647 48.3127 35.8728 48.2646 36.0081C48.2154 36.1167 48.1801 36.2381 48.1587 36.3723C48.1058 37.0682 48.2763 37.6755 48.6702 38.1943C48.8384 38.4014 49.0327 38.5942 49.2532 38.7726C49.5003 38.9501 49.733 39.1014 49.9514 39.2266C50.1421 39.3261 50.3717 39.3974 50.6403 39.4407C50.9078 39.4572 51.1748 39.4604 51.4413 39.4504C51.8676 39.4342 52.2786 39.3653 52.6741 39.2436C53.0697 39.1219 53.356 38.9376 53.5332 38.6907C53.863 38.2512 54.0175 37.765 53.9967 37.2321C53.9811 36.8324 53.8578 36.4101 53.627 35.9652C53.3961 35.5203 53.0443 35.0533 52.5715 34.5641C52.2659 34.2555 51.9726 33.9196 51.6916 33.5567C51.4105 33.1937 51.2217 32.8006 51.1251 32.3773C51.0954 32.2983 51.0656 32.2194 51.0358 32.1405C51.0327 32.0605 51.0296 31.9806 51.0265 31.9007C50.6998 32.42 50.3588 32.9133 50.0034 33.3804C49.6736 33.8199 49.3817 34.2045 49.1277 34.5344C49.0274 34.6983 48.9372 34.7817 48.8573 34.7848C48.804 34.7868 48.7753 34.7345 48.7711 34.6279C48.7618 34.3881 48.8585 34.1309 49.0612 33.8564C49.2651 33.6085 49.4935 33.3063 49.7464 32.9498C49.9983 32.5667 50.2001 32.2655 50.3516 32.0463C50.7786 31.363 51.0914 30.8308 51.2901 30.4496C51.5143 30.0409 51.7534 29.6716 52.0074 29.3417C52.287 28.9842 52.6358 28.6908 53.0539 28.4615C53.4985 28.2312 53.9607 28.107 54.4404 28.0888C55 28.0676 55.5099 28.1417 55.9702 28.3111C56.4561 28.4528 56.7259 28.8696 56.7796 29.5614C56.7921 29.8811 56.7385 30.2167 56.6187 30.5682C56.5246 30.892 56.4167 31.2029 56.2949 31.5011C56.2212 31.664 56.1059 31.7884 55.9492 31.8744C55.818 31.9328 55.7504 31.9086 55.7462 31.8021C55.742 31.6955 55.7507 31.5751 55.7721 31.4408C55.7936 31.3066 55.8022 31.1862 55.7981 31.0796C55.7804 30.6266 55.6848 30.2299 55.5114 29.8896C55.3636 29.5216 55.1534 29.2627 54.8806 29.1129C54.6069 28.9364 54.3234 28.8538 54.0303 28.8649C53.604 28.881 53.1977 29.0698 52.8115 29.4314C52.4243 29.7663 52.2411 30.2002 52.2619 30.7331C52.2639 30.7864 52.2665 30.853 52.2697 30.9329C52.2728 31.0129 52.2887 31.079 52.3174 31.1313C52.4407 31.5536 52.7792 32.0211 53.3329 32.5339C53.8867 33.0466 54.3179 33.4973 54.6266 33.8859C55.16 34.5595 55.4407 35.2561 55.4688 35.9755C55.4969 36.695 55.3097 37.3692 54.9073 37.9982C54.5304 38.5996 54.0024 39.0866 53.323 39.4592C52.6714 39.8575 51.9459 40.0717 51.1465 40.102ZM59.617 39.261C59.3505 39.2711 59.1219 39.2264 58.9312 39.1268C58.7405 39.0273 58.6394 38.831 58.628 38.5379C58.6134 38.1648 58.6895 37.7216 58.8563 37.2083C59.0497 36.6939 59.2565 36.1791 59.4765 35.6637C59.6966 35.1484 59.8803 34.7278 60.0277 34.402C60.1516 34.1571 60.3103 33.7775 60.5037 33.2632C60.7227 32.7212 60.9412 32.1658 61.1592 31.5972C61.4028 31.0009 61.5967 30.4998 61.741 30.0941C61.9119 29.6873 61.9974 29.484 61.9974 29.484C61.768 29.7595 61.4628 30.1447 61.0818 30.6394C60.7274 31.1332 60.3342 31.6551 59.902 32.2052C59.4954 32.7276 59.1144 33.2223 58.759 33.6895C58.4303 34.1556 58.1901 34.4982 58.0385 34.7174C57.9628 34.8271 57.8982 34.8829 57.8449 34.8849C57.7916 34.8869 57.7624 34.8213 57.7572 34.6881C57.7489 34.4749 57.8077 34.2725 57.9336 34.081C58.2378 33.6692 58.6055 33.1749 59.0366 32.5982C59.4668 31.9948 59.8969 31.3914 60.327 30.7881C60.7838 30.1837 61.1765 29.6485 61.5053 29.1824C61.2921 29.1904 61.0128 29.2143 60.6674 29.2541C60.3487 29.2929 60.0571 29.3439 59.7927 29.4073C59.5273 29.444 59.3813 29.4629 59.3546 29.4639C59.2214 29.4689 59.2305 29.3619 59.3821 29.1426C59.5337 28.9234 59.7385 28.7022 59.9967 28.4789C60.2548 28.2557 60.4505 28.1415 60.5838 28.1365C60.6104 28.1355 60.8241 28.1407 61.2249 28.1522C61.6246 28.1371 61.9177 28.126 62.1042 28.1189C62.6091 27.3793 63.0965 26.5336 63.5664 25.5818C64.0629 24.629 64.5425 23.5835 65.0051 22.4452C65.2173 22.4104 65.5713 22.2503 66.0672 21.9646C66.5887 21.6514 66.9903 21.3426 67.272 21.0384C67.4 20.9001 67.504 20.8295 67.584 20.8265C67.7438 20.8204 67.748 20.927 67.5964 21.1462C67.4182 21.3665 67.1161 21.8315 66.6902 22.5415C66.2632 23.2248 65.7886 24.0567 65.2664 25.0371C64.7432 25.9909 64.2488 26.997 63.783 28.0554L67.0207 27.9328C67.3138 27.9218 67.462 27.9562 67.4651 28.0361C67.4693 28.1427 67.2736 28.2569 66.878 28.3786C66.4302 28.5289 65.9537 28.627 65.4484 28.6728C64.9698 28.7177 64.5188 28.7881 64.0956 28.8842C63.699 28.9792 63.4127 29.1635 63.2365 29.4371C63.0839 29.6296 62.873 30.0379 62.6038 30.6619C62.3346 31.2858 62.0424 32.0041 61.7272 32.8166C61.4376 33.6014 61.1885 34.3981 60.9799 35.2065C60.7702 35.9884 60.6491 36.6467 60.6166 37.1817L60.6229 37.3416C60.6312 37.5547 60.7046 37.7254 60.843 37.8536C60.9814 37.9818 61.1173 38.0434 61.2505 38.0383C61.5969 38.0252 62.0283 37.7954 62.5446 37.3489C63.0876 36.9014 63.6407 36.3734 64.2041 35.765C64.7664 35.1299 65.2509 34.5512 65.6575 34.0288C65.8357 33.8085 65.9878 33.6026 66.1137 33.4111C66.2663 33.2185 66.3549 33.0951 66.3795 33.0408C66.4369 33.1453 66.4667 33.2243 66.4688 33.2775C66.475 33.4374 66.4285 33.6126 66.3292 33.8032C66.2565 33.9928 66.1695 34.1562 66.0681 34.2934C65.5878 34.9788 65.0025 35.7081 64.3121 36.4814C63.6207 37.2281 62.8719 37.8702 62.0655 38.4078C61.2859 38.9443 60.4697 39.2287 59.617 39.261ZM111.896 37.2822C111.63 37.2923 111.401 37.2475 111.21 37.148C111.02 37.0485 110.919 36.8522 110.907 36.5591C110.893 36.186 110.969 35.7561 111.137 35.2694C111.305 34.7827 111.5 34.3084 111.722 33.8463C111.943 33.3576 112.141 32.9631 112.316 32.663C111.422 33.6842 110.486 34.6536 109.508 35.5713C109.018 36.0168 108.474 36.4377 107.876 36.8339C107.277 37.2302 106.632 37.4414 105.939 37.4676C105.672 37.4777 105.483 37.4048 105.37 37.249C105.256 37.0665 105.194 36.8553 105.185 36.6155C105.18 36.4823 105.189 36.3885 105.214 36.3342C105.307 35.29 105.598 34.1982 106.087 33.0589C106.576 31.9196 107.188 30.8423 107.922 29.8271C108.657 28.812 109.411 27.9828 110.187 27.3397C111.066 26.6126 112.052 26.2284 113.144 26.187L117.741 26.013C117.874 26.008 117.943 26.0588 117.947 26.1653C117.955 26.3785 117.84 26.4896 117.6 26.4987C117.333 26.5088 117.074 26.6921 116.821 27.0486C116.567 27.3784 116.377 27.6525 116.252 27.8707C116.077 28.1708 115.803 28.6749 115.431 29.3828C115.058 30.0908 114.675 30.8658 114.28 31.708C113.912 32.5225 113.595 33.2817 113.329 33.9856C113.063 34.6895 112.936 35.2014 112.948 35.5211C112.963 35.8942 113.157 36.0736 113.53 36.0595C113.929 36.0444 114.375 35.8407 114.867 35.4485C115.359 35.0563 115.847 34.5841 116.333 34.032C116.844 33.4523 117.302 32.8879 117.708 32.3388C118.139 31.7621 118.481 31.3088 118.735 30.979C118.902 31.1328 118.897 31.3598 118.722 31.66C118.573 31.9325 118.434 32.1512 118.307 32.3161C117.801 33.0291 117.217 33.7717 116.553 34.5441C115.888 35.2897 115.153 35.9314 114.346 36.4689C113.566 36.9788 112.749 37.2499 111.896 37.2822ZM107.525 36.0466C107.844 36.0345 108.275 35.7914 108.817 35.3172C109.385 34.8154 109.988 34.2055 110.627 33.4875C111.265 32.7428 111.862 31.973 112.418 31.178C112.973 30.3565 113.425 29.6189 113.773 28.9652C114.147 28.2839 114.327 27.7701 114.313 27.4237C114.302 27.1306 114.201 26.9343 114.01 26.8347C113.846 26.7342 113.631 26.689 113.364 26.6991C112.938 26.7152 112.478 26.8927 111.984 27.2316C111.516 27.5429 111.141 27.8507 110.859 28.1549C110.551 28.4601 110.183 28.941 109.755 29.5977C109.352 30.2267 108.952 30.9223 108.555 31.6845C108.158 32.4468 107.826 33.1798 107.56 33.8837C107.294 34.5876 107.169 35.1528 107.186 35.5791C107.199 35.8989 107.311 36.0547 107.525 36.0466ZM118.466 37.4738C118.36 37.4778 118.356 37.3712 118.454 37.154C118.578 36.9092 118.687 36.6382 118.782 36.341C118.904 36.0429 119.025 35.7181 119.145 35.3666C119.386 34.717 119.651 33.9865 119.94 33.175C120.228 32.3635 120.505 31.5791 120.769 30.822C121.032 30.0381 121.259 29.3757 121.452 28.8347C121.67 28.266 121.815 27.9003 121.889 27.7374C121.532 28.1512 121.098 28.6746 120.589 29.3076C120.106 29.913 119.649 30.5041 119.218 31.0808C118.786 31.6575 118.457 32.1103 118.23 32.4391C118.154 32.5487 118.089 32.6046 118.036 32.6066C117.983 32.6086 117.954 32.543 117.948 32.4098C117.94 32.1966 117.999 31.9942 118.125 31.8026C118.606 31.144 119.138 30.4033 119.719 29.5807C120.328 28.7571 120.872 28.0027 121.352 27.3174C121.832 26.6054 122.134 26.1403 122.259 25.9221C122.55 25.8577 122.973 25.7616 123.528 25.6339C124.11 25.5051 124.504 25.3434 124.71 25.1488C124.787 25.0658 124.866 25.0228 124.946 25.0198C124.999 25.0178 125.028 25.0701 125.032 25.1767C125.061 25.2556 125.038 25.3499 124.963 25.4595C124.809 25.6254 124.583 25.9809 124.284 26.5259C124.011 27.0699 123.702 27.6954 123.356 28.4023C123.01 29.1093 122.676 29.7891 122.355 30.4417C122.606 30.0319 122.934 29.5525 123.34 29.0034C123.771 28.4267 124.243 27.8751 124.756 27.3486C125.268 26.7955 125.784 26.3357 126.304 25.9691C126.85 25.6015 127.363 25.4087 127.842 25.3905C128.189 25.3774 128.485 25.4462 128.731 25.5971C128.976 25.7212 129.172 25.9673 129.32 26.3353C129.407 26.5188 129.456 26.7304 129.465 26.9703C129.483 27.4233 129.38 27.8675 129.157 28.3029C128.959 28.7106 128.811 29.0231 128.713 29.2403C128.689 29.3213 128.599 29.4047 128.443 29.4907C128.285 29.5501 128.217 29.526 128.24 29.4184C128.261 29.2841 128.269 29.1504 128.264 29.0172C128.285 28.8829 128.293 28.7359 128.287 28.576C128.269 28.123 128.16 27.7135 127.959 27.3475C127.784 26.9805 127.47 26.8056 127.017 26.8227C126.591 26.8389 126.082 27.125 125.49 27.6811C124.898 28.2373 124.309 28.8733 123.723 29.5893C122.985 30.5246 122.406 31.4138 121.986 32.2569C121.564 33.0735 121.221 33.8737 120.958 34.6575C120.815 35.0899 120.672 35.5223 120.529 35.9547C120.384 36.3604 120.277 36.6847 120.206 36.9276C119.861 36.9673 119.518 37.0604 119.177 37.2067C118.836 37.3797 118.6 37.4687 118.466 37.4738ZM130.699 36.5705C130.432 36.5805 130.204 36.5358 130.013 36.4363C129.822 36.3368 129.721 36.1405 129.71 35.8473C129.695 35.4743 129.771 35.0311 129.938 34.5178C130.132 34.0034 130.338 33.4886 130.558 32.9732C130.779 32.4578 130.962 32.0373 131.11 31.7114C131.234 31.4666 131.392 31.087 131.586 30.5726C131.805 30.0306 132.023 29.4753 132.241 28.9066C132.485 28.3103 132.679 27.8093 132.823 27.4036C132.994 26.9968 133.079 26.7934 133.079 26.7934C132.85 27.069 132.545 27.4541 132.164 27.9489C131.809 28.4426 131.416 28.9646 130.984 29.5146C130.577 30.0371 130.196 30.5318 129.841 30.9989C129.512 31.465 129.272 31.8077 129.12 32.0269C129.045 32.1365 128.98 32.1923 128.927 32.1944C128.874 32.1964 128.844 32.1308 128.839 31.9975C128.831 31.7844 128.89 31.582 129.016 31.3904C129.32 30.9786 129.687 30.4844 130.119 29.9076C130.549 29.3043 130.979 28.7009 131.409 28.0975C131.866 27.4932 132.258 26.9579 132.587 26.4918C132.374 26.4999 132.095 26.5238 131.749 26.5636C131.431 26.6023 131.139 26.6534 130.875 26.7168C130.609 26.7535 130.463 26.7724 130.437 26.7734C130.303 26.7784 130.312 26.6713 130.464 26.4521C130.616 26.2329 130.82 26.0116 131.079 25.7884C131.337 25.5651 131.532 25.451 131.666 25.4459C131.692 25.4449 131.906 25.4502 132.307 25.4617C132.707 25.4466 133 25.4355 133.186 25.4284C133.691 24.6888 134.178 23.8431 134.648 22.8913C135.145 21.9385 135.624 20.8929 136.087 19.7546C136.299 19.7199 136.653 19.5597 137.149 19.2741C137.671 18.9608 138.072 18.6521 138.354 18.3479C138.482 18.2096 138.586 18.139 138.666 18.1359C138.826 18.1299 138.83 18.2365 138.678 18.4557C138.5 18.6759 138.198 19.141 137.772 19.851C137.345 20.5343 136.871 21.3662 136.348 22.3466C135.825 23.3004 135.331 24.3065 134.865 25.3649L138.103 25.2423C138.396 25.2312 138.544 25.2656 138.547 25.3456C138.551 25.4522 138.355 25.5663 137.96 25.688C137.512 25.8384 137.036 25.9365 136.53 25.9823C136.052 26.0271 135.601 26.0976 135.178 26.1936C134.781 26.2887 134.495 26.473 134.318 26.7465C134.166 26.9391 133.955 27.3474 133.686 27.9713C133.417 28.5953 133.124 29.3135 132.809 30.126C132.52 30.9109 132.27 31.7075 132.062 32.516C131.852 33.2978 131.731 33.9562 131.699 34.4912L131.705 34.651C131.713 34.8642 131.786 35.0349 131.925 35.1631C132.063 35.2913 132.199 35.3528 132.332 35.3478C132.679 35.3347 133.11 35.1049 133.627 34.6584C134.169 34.2108 134.723 33.6829 135.286 33.0745C135.848 32.4394 136.333 31.8607 136.739 31.3382C136.918 31.118 137.07 30.9121 137.196 30.7205C137.348 30.528 137.437 30.4045 137.461 30.3502C137.519 30.4548 137.549 30.5337 137.551 30.587C137.557 30.7469 137.51 30.9221 137.411 31.1127C137.338 31.3022 137.251 31.4656 137.15 31.6029C136.67 32.2882 136.084 33.0176 135.394 33.7909C134.703 34.5376 133.954 35.1797 133.147 35.7172C132.368 36.2538 131.552 36.5382 130.699 36.5705Z" fill="#1E1E1E"/>
        <path d="M27.0685 48.5276C25.8168 47.4998 60.0683 42.7703 61.32 43.7981C62.5718 44.8258 59.5421 46.4448 61.6828 46.1492C63.8235 45.8536 40.5449 46.6046 27.4313 50.8787C27.2896 49.9605 28.3203 49.5553 27.0685 48.5276Z" fill="#E05F5F"/>
        <path d="M33.9395 51.6875C33.4408 51.2701 47.0485 49.3912 47.5472 49.8085C48.0459 50.2258 46.8436 50.878 47.6941 50.7606C48.5446 50.6432 39.2934 50.923 34.0864 52.6396C34.0291 52.2677 34.4382 52.1048 33.9395 51.6875Z" fill="#E39D0F"/>
        <path d="M108.326 17.4407L110.08 18.3369L112.192 20.1932L117.491 20.0326L123.067 18.9906L127.62 17.8055L132.377 16.6833L139.898 12.405L132.317 18.7104L127.528 20.9094C104.446 23.634 110.542 26.5504 108.326 17.4407Z" fill="#1A1A1A"/>
        <ellipse cx="2.44118" cy="2.66972" rx="2.44118" ry="2.66972" transform="matrix(0.999999 -0.00132558 -0.00141412 0.999999 111.781 12.3992)" fill="#0A0A0A"/>
        <ellipse cx="2.44118" cy="2.66972" rx="2.44118" ry="2.66972" transform="matrix(0.999999 -0.00132558 -0.00141412 0.999999 121.549 10.0979)" fill="#0E0D0D"/>
        <ellipse cx="2.44118" cy="2.28833" rx="2.44118" ry="2.28833" transform="matrix(0.999999 -0.00132558 -0.00141412 0.999999 131.316 8.55945)" fill="#141313"/>
    </g>
    <defs>
        <clipPath id="clip0_4_12">
            <rect x="0.768127" y="3.41051" width="151.683" height="62.83" rx="6" transform="rotate(-1.21229 0.768127 3.41051)" fill="white"/>
        </clipPath>
    </defs>
</svg>
